<?xml version="1.0" encoding="utf-8"?>
<svg viewBox="0 0 500 500" xmlns="http://www.w3.org/2000/svg">
  <rect x="188.488" y="247.743" width="156.321" height="189.616" style="fill: rgb(216, 216, 216); stroke: rgb(0, 0, 0);"/>
  <path stroke="rgb(255,0,0)" stroke-width="0" d="M 288.284 110.237 C 289.689 117.652 289.847 121.947 288.849 129.424 C 288.085 135.15 285.272 142.88 282.85 150.145 C 283.051 150.107 283.263 150.066 283.488 150.023 C 289.546 148.862 307.95 148.381 315.655 148.33 C 320.722 148.296 323.66 147.667 326.941 148.894 C 330.121 150.082 333.39 153.125 335.124 155.384 C 336.521 157.203 336.963 158.717 337.382 161.027 C 337.907 163.926 338.402 168.375 337.382 171.749 C 336.321 175.257 333.882 179.235 330.892 181.625 C 327.816 184.084 324.026 183.577 319.041 186.14 C 311.578 189.977 296.702 202.243 289.695 204.763 C 287.032 205.721 285.139 206.035 283.312 205.917 C 283.299 210.497 282.319 214.516 283.205 218.589 C 284.245 223.362 288.558 228.544 289.413 232.133 C 290.016 234.662 290.233 235.978 289.413 238.341 C 288.272 241.628 283.906 247.689 281.23 249.91 C 279.323 251.493 278.111 251.725 275.587 252.167 C 271.997 252.796 265.641 252.932 260.914 252.167 C 256.239 251.411 251.052 249.591 247.37 247.652 C 244.222 245.995 241.78 244.599 239.752 241.727 C 237.332 238.301 235.821 234.68 234.673 227.619 C 232.722 215.619 231.716 188.679 233.544 171.185 C 233.943 167.368 234.619 163.658 235.452 160.024 C 231.001 154.203 227.061 140.54 222.822 133.375 C 219.263 127.362 213.956 123.324 212.099 118.702 C 210.592 114.951 210.139 111.357 210.971 107.98 C 211.834 104.476 215.133 100.088 217.461 98.104 C 219.245 96.583 220.948 96.171 223.104 95.847 C 225.567 95.476 229.222 95.637 231.569 96.411 C 233.627 97.089 233.844 98.884 236.648 99.797 C 238.592 100.43 242.033 100.676 245.841 100.867 C 246.054 94.721 246.411 89.161 247.555 85.172 C 247.265 85.007 246.976 84.836 246.687 84.66 C 243.524 87.312 239.76 89.133 234.391 90.203 C 227.004 91.675 214.562 91.082 205.045 90.203 C 195.764 89.346 185.04 87.501 177.957 85.124 C 172.457 83.279 168.532 80.935 164.977 78.352 C 161.834 76.067 159.011 73.176 157.359 70.734 C 156.045 68.791 155.516 67.365 155.102 65.09 C 154.592 62.297 154.452 58.211 155.102 54.932 C 155.757 51.625 157.08 48.462 159.052 45.339 C 161.249 41.86 166.618 38.971 168.081 35.181 C 169.467 31.592 167.543 26.937 168.081 23.33 C 168.573 20.033 169.156 17.391 170.903 14.3 C 173.016 10.563 176.097 6.27 180.779 2.731 C 186.668 -1.721 197.588 -6.95 205.045 -9.12 C 211.325 -10.947 217.694 -10.699 222.54 -10.813 C 226.346 -10.902 229.108 -11.455 232.133 -10.248 C 235.443 -8.928 239.161 -5.979 241.445 -2.63 C 242.152 -1.592 242.758 -0.394 243.283 0.894 C 244.842 0.25 246.638 -0.253 249.063 -0.655 C 256.707 -1.922 275.423 -2.645 282.923 -0.655 C 284.244 -0.305 285.418 0.168 286.47 0.715 C 286.954 0.242 287.465 -0.216 288.002 -0.655 C 292.168 -4.063 300.955 -7.134 306.061 -8.555 C 309.987 -9.648 312.074 -9.47 316.219 -9.684 C 321.675 -9.965 330.664 -10.405 336.535 -9.684 C 341.508 -9.073 344.938 -7.92 349.515 -6.298 C 354.655 -4.476 362.024 -1.541 365.88 1.038 C 368.725 2.941 370.055 4.189 371.806 6.964 C 374.058 10.532 376.495 16.456 377.449 21.637 C 378.432 26.973 378.88 33.685 377.449 38.567 C 376.129 43.072 371.714 47.997 369.831 50.135 C 368.78 51.328 367.568 50.665 367.291 52.111 C 366.716 55.112 371.78 64.151 372.935 71.298 C 374.238 79.369 375.744 91.834 374.063 98.386 C 372.826 103.208 370.594 105.802 367.009 108.826 C 362.637 112.514 354.788 116.275 348.386 117.856 C 342.174 119.389 334.492 119.23 329.199 118.42 C 324.897 117.762 322.967 116.862 318.476 114.47 C 311.656 110.836 296.104 102.084 291.67 96.129 C 290.624 94.724 289.923 93.279 289.468 91.845 C 287.514 92.043 285.46 92.108 283.415 92.127 C 285.539 98.566 287.378 105.452 288.284 110.237 Z M 198.555 57.19 C 198.626 57.311 198.951 57.451 199.479 57.602 C 199.442 57.35 199.405 57.087 199.367 56.813 C 198.78 56.915 198.461 57.03 198.555 57.19 Z" style="stroke: rgb(129, 151, 57); stroke-width: 2px; fill: rgb(161, 209, 48);"/>
  <rect x="190.745" y="246.05" width="152.37" height="24.831" style="fill: rgb(216, 216, 216); stroke: rgb(0, 0, 0);"/>
  <rect x="188.488" y="202.596" width="155.756" height="44.582" style="fill: rgb(216, 216, 216); stroke: rgb(0, 0, 0);"/>
  <rect x="344.808" y="202.596" width="34.989" height="234.763" style="fill: rgb(216, 216, 216); stroke: rgb(0, 0, 0);"/>
  <ellipse style="fill: rgb(216, 216, 216); stroke: rgb(0, 0, 0);" cx="212.754" cy="227.991" rx="16.366" ry="11.851"/>
  <ellipse style="fill: rgb(216, 216, 216); stroke: rgb(0, 0, 0);" cx="262.697" cy="227.991" rx="14.955" ry="11.287"/>
  <ellipse style="fill: rgb(216, 216, 216); stroke: rgb(0, 0, 0);" cx="315.181" cy="227.426" rx="17.212" ry="10.722"/>
</svg>